<svg width="120" height="167" viewBox="0 0 120 167" fill="none" xmlns="http://www.w3.org/2000/svg">
<path d="M59.2425 166.284C59.1416 166.239 24.0956 150.509 12.2797 145.366L12.1977 145.33L12.1546 145.307C-0.0725683 138.546 -0.00982401 126.549 0.00529133 125.82L0 1.52428V0H1.52428H118.061H119.585V1.52428V125.82C119.6 126.549 119.658 138.546 107.43 145.306L107.388 145.33L107.305 145.366C95.6869 150.424 60.5883 166.238 60.4869 166.284L59.8656 166.564L59.2425 166.284ZM13.5816 142.618C24.492 147.369 55.1084 161.099 59.8574 163.23C64.5757 161.104 94.9171 147.445 106.003 142.618C116.925 136.553 116.543 125.887 116.542 125.856L116.536 125.82V3.04857H3.04835V125.82L3.0423 125.856C3.04155 125.887 2.6599 136.553 13.5816 142.618Z" fill="url(#paint0_linear_1_3)"/>
<path fill-rule="evenodd" clip-rule="evenodd" d="M59.8621 11.5767C54.8043 17.1825 54.7348 24.2029 54.7348 25.4963C54.7348 32.9329 55.705 46.1431 55.705 60.6005C55.705 83.2337 44.8505 98.291 44.8505 98.291C44.8505 98.291 44.6657 98.661 42.4487 98.661C40.2312 98.661 35.4278 96.8597 35.4278 91.5479C35.4278 86.2358 41.2936 84.758 42.4022 84.758C43.5107 84.758 44.0652 84.9425 44.0652 84.9425C44.0652 84.9425 42.9566 75.2427 40.4621 53.3486C35.6123 29.9307 18.0141 21.7552 18.0141 21.7552V123.049H41.4785C41.4785 123.049 43.1876 137.321 55.705 146.421C55.705 146.421 59.6773 149.839 59.8621 150.947C60.0469 149.839 64.0192 146.421 64.0192 146.421C76.5362 137.322 78.2453 123.049 78.2453 123.049H101.71V21.7552C101.71 21.7552 84.1115 29.9307 79.2616 53.349C76.7675 75.2427 75.659 84.9425 75.659 84.9425C75.659 84.9425 76.2131 84.758 77.3216 84.758C78.4302 84.758 84.296 86.2358 84.296 91.5479C84.296 96.8597 79.4926 98.6614 77.2755 98.6614C75.0581 98.6614 74.8736 98.2914 74.8736 98.2914C74.8736 98.2914 64.0192 83.2338 64.0192 60.6009C64.0192 46.1434 64.989 32.9333 64.989 25.4967C64.989 24.2033 64.9199 17.1821 59.8621 11.5767ZM56.2591 123.049H49.0534C49.0534 123.049 49.8388 131.409 56.2591 137.367C56.2591 133.58 56.2591 123.049 56.2591 123.049ZM63.4647 123.049H70.6704C70.6704 123.049 69.885 131.409 63.4647 137.367C63.4647 133.58 63.4647 123.049 63.4647 123.049ZM94.5962 36.6744C94.5962 36.6744 88.2224 44.6186 86.3746 53.9491C85.3587 62.5404 83.3264 79.2614 83.3264 79.2614C83.3264 79.2614 89.4232 81.8478 90.8091 88.2219C92.0099 88.2219 94.5966 88.2219 94.5966 88.2219L94.5962 36.6744ZM77.5986 105.774C79.0767 105.774 88.8226 104.342 90.8091 95.2427H94.5962V116.213H79.0767C79.0767 116.213 79.0767 110.485 77.5986 105.774ZM71.825 116.12H63.3724C63.3724 116.12 63.6453 108.646 70.7164 107.529C71.3166 109.469 71.825 111.825 71.825 116.12ZM59.862 81.7555C59.862 81.7555 56.7674 93.2104 51.8249 100.693C53.6723 101.894 59.862 106.097 59.862 106.097C59.862 106.097 66.0514 101.894 67.8988 100.693C62.9563 93.2104 59.862 81.7555 59.862 81.7555ZM47.8987 116.12H56.3512C56.3512 116.12 56.0787 108.646 49.0072 107.529C48.407 109.469 47.8987 111.825 47.8987 116.12ZM42.1251 105.774C40.6469 105.774 30.901 104.342 28.9145 95.2427H25.1274V116.213H40.6469C40.6469 116.213 40.6469 110.485 42.1251 105.774ZM25.1274 36.674C25.1274 36.674 31.5012 44.6186 33.349 53.9491C34.3653 62.5404 36.3976 79.2614 36.3976 79.2614C36.3976 79.2614 30.3005 81.8474 28.9145 88.2215C27.7138 88.2215 25.1274 88.2215 25.1274 88.2215L25.1274 36.674Z" fill="url(#paint1_linear_1_3)"/>
<defs>
<linearGradient id="paint0_linear_1_3" x1="16.8484" y1="126.226" x2="102.737" y2="40.3377" gradientUnits="userSpaceOnUse">
<stop stop-color="white"/>
<stop offset="0.0784314" stop-color="white"/>
<stop offset="0.25098" stop-color="white"/>
<stop offset="0.458824" stop-color="white"/>
<stop offset="0.670588" stop-color="white"/>
<stop offset="0.839216" stop-color="white"/>
<stop offset="1" stop-color="white"/>
</linearGradient>
<linearGradient id="paint1_linear_1_3" x1="41.8095" y1="127.546" x2="77.9141" y2="34.9784" gradientUnits="userSpaceOnUse">
<stop stop-color="white"/>
<stop offset="0.180392" stop-color="white"/>
<stop offset="0.388235" stop-color="white"/>
<stop offset="0.529412" stop-color="white"/>
<stop offset="0.658824" stop-color="white"/>
<stop offset="0.839216" stop-color="white"/>
<stop offset="1" stop-color="white"/>
</linearGradient>
</defs>
</svg>
