<?xml version="1.0" encoding="UTF-8" standalone="no"?>
<!-- Created with Inkscape (http://www.inkscape.org/) -->

<svg
   xmlns:svg="http://www.w3.org/2000/svg"
   xmlns="http://www.w3.org/2000/svg"
   version="1.1"
   width="31.6402mm"
   height="44.070099mm"
   viewBox="0 0 6.07603 8.46301"
   id="svg2"
   xml:space="preserve"
   style="fill-rule:evenodd">
 <defs
   id="defs4">
  <style
   type="text/css"
   id="style6" />
  <linearGradient
   x1="2.12431"
   y1="6.4805102"
   x2="3.95876"
   y2="1.77723"
   id="id0"
   gradientUnits="userSpaceOnUse">
   <stop
   id="stop9"
   style="stop-color:#d0a53f;stop-opacity:1"
   offset="0" />
   <stop
   id="stop11"
   style="stop-color:#fbd98f;stop-opacity:1"
   offset="0.180392" />
   <stop
   id="stop13"
   style="stop-color:#dbae3c;stop-opacity:1"
   offset="0.388235" />
   <stop
   id="stop15"
   style="stop-color:#fef9d1;stop-opacity:1"
   offset="0.52941197" />
   <stop
   id="stop17"
   style="stop-color:#e3b43a;stop-opacity:1"
   offset="0.65882403" />
   <stop
   id="stop19"
   style="stop-color:#f9e6a2;stop-opacity:1"
   offset="0.83921599" />
   <stop
   id="stop21"
   style="stop-color:#efbd36;stop-opacity:1"
   offset="1" />
  </linearGradient>
  <radialGradient
   cx="2.02424"
   cy="2.1526599"
   r="8.98563"
   fx="2.02424"
   fy="2.1526599"
   id="id1"
   gradientUnits="userSpaceOnUse">
   <stop
   id="stop24"
   style="stop-color:#0000ff;stop-opacity:1"
   offset="0" />
   <stop
   id="stop26"
   style="stop-color:#1a117e;stop-opacity:1"
   offset="1" />
  </radialGradient>
  <linearGradient
   x1="0.85605401"
   y1="6.4134498"
   x2="5.2199702"
   y2="2.04953"
   id="id2"
   gradientUnits="userSpaceOnUse">
   <stop
   id="stop29"
   style="stop-color:#d0a53f;stop-opacity:1"
   offset="0" />
   <stop
   id="stop31"
   style="stop-color:#fbd98f;stop-opacity:1"
   offset="0.0784314" />
   <stop
   id="stop33"
   style="stop-color:#dbae3c;stop-opacity:1"
   offset="0.25097999" />
   <stop
   id="stop35"
   style="stop-color:#fef9d1;stop-opacity:1"
   offset="0.45882401" />
   <stop
   id="stop37"
   style="stop-color:#e3b43a;stop-opacity:1"
   offset="0.67058802" />
   <stop
   id="stop39"
   style="stop-color:#f9e6a2;stop-opacity:1"
   offset="0.83921599" />
   <stop
   id="stop41"
   style="stop-color:#efbd36;stop-opacity:1"
   offset="1" />
  </linearGradient>
 </defs>
 <g
   id="Layer_x0020_1">
  
  <path
   d="m 3.04155,8.3783 c 0,0 -1.78831,-0.80263 -2.38677,-1.06313 C 0.056322,6.984255 0.077446,6.392845 0.077446,6.392845 l 0,-6.3154 5.92113,0 0,6.3154 c 0,0 0.021124,0.59141 -0.577315,0.922325 C 4.822803,7.575666 3.041541,8.3783 3.041541,8.3783 z"
   id="path45"
   style="fill:url(#id1)" />
  <path
   d="M 3.01007,8.44879 C 3.0049427,8.4464856 1.22428,7.647274 0.62392,7.38595 l -0.004167,-0.00182 -0.002189,-0.00119 c -0.621253,-0.343532 -0.618065,-0.953051 -0.617297,-0.990094 l -2.68849e-4,0 0,-6.31540005 0,-0.0774478 0.077447799,0 5.92113001,0 0.077448,0 0,0.0774478 0,6.31540005 -2.497e-4,0 c 7.49e-4,0.037044 0.00396,0.646563 -0.617316,0.990075 l -0.00217,0.00121 -0.00419,0.00182 c -0.590316,0.256962 -2.37365,1.06051 -2.3788,1.06284 l -0.031571,0.014211 -0.031667,-0.014211 z m -2.32,-1.20247 C 1.244418,7.487708 2.80002,8.185333 3.04131,8.29358 3.281047,8.185599 4.82267,7.491603 5.38594,7.24632 5.940883,6.938181 5.921468,6.396219 5.92143,6.394664 l -3.073e-4,-0.00182 0,-6.23795003 -5.76623996,0 0,6.23795003 -3.0725e-4,0.00182 c -3.841e-5,0.00156 -0.019434,0.543517 0.53549,0.851656 z"
   id="path47"
   style="fill:url(#id2);fill-rule:nonzero" />
  <path
   d="M 3.04155,0.588203 C 2.784569,0.873029 2.781035,1.229735 2.781035,1.295449 c 0,0.377848 0.049295,1.04905 0.049295,1.78362 0,1.14998 -0.551506,1.91503 -0.551506,1.91503 0,0 -0.00939,0.0188 -0.122038,0.0188 -0.112667,0 -0.356724,-0.091524 -0.356724,-0.36141 0,-0.269905 0.298038,-0.344991 0.354362,-0.344991 0.056324,0 0.084495,0.00937 0.084495,0.00937 0,0 -0.056324,-0.492839 -0.183067,-1.60526 -0.246419,-1.18985 -1.14057,-1.60524 -1.14057,-1.60524 l 0,5.14667 1.19221,0 c 0,0 0.086838,0.725163 0.722839,1.18751 0,0 0.201829,0.173657 0.211219,0.229981 0.00939,-0.056324 0.211219,-0.229981 0.211219,-0.229981 0.635982,-0.462324 0.72282,-1.18751 0.72282,-1.18751 l 1.19221,0 0,-5.14667 c 0,0 -0.894154,0.415391 -1.14057,1.60526 -0.126724,1.1124 -0.183048,1.60524 -0.183048,1.60524 0,0 0.028152,-0.00937 0.084476,-0.00937 0.056324,0 0.354362,0.075086 0.354362,0.344991 0,0.269886 -0.244057,0.361429 -0.356705,0.361429 -0.112667,0 -0.122038,-0.0188 -0.122038,-0.0188 0,0 -0.551506,-0.765068 -0.551506,-1.91503 0,-0.734573 0.049276,-1.40577 0.049276,-1.78362 0,-0.065714 -0.00351,-0.422439 -0.260496,-0.707246 l 0,-1.92e-5 z m -0.183067,5.66384 -0.366115,0 c 0,0 0.039905,0.424762 0.366115,0.727506 0,-0.192419 0,-0.727506 0,-0.727506 z m 0.366115,0 0.366115,0 c 0,0 -0.039905,0.424762 -0.366115,0.727506 0,-0.192419 0,-0.727506 0,-0.727506 z m 1.58177,-4.38864 c 0,0 -0.323848,0.403639 -0.417734,0.877716 -0.051619,0.436515 -0.154876,1.2861 -0.154876,1.2861 0,0 0.309772,0.13141 0.380191,0.455277 0.061009,0 0.192438,0 0.192438,0 l -1.92e-5,-2.61909 z m -0.863639,3.5109 c 0.075105,0 0.570287,-0.072743 0.67122,-0.535087 l 0.192419,0 0,1.06547 -0.788534,0 c 0,0 0,-0.29101 -0.075105,-0.530382 z m -0.293353,0.525696 -0.429467,0 c 0,0 0.013865,-0.379769 0.373143,-0.436515 0.030495,0.098572 0.056324,0.218267 0.056324,0.436515 z M 3.041547,4.153939 c 0,0 -0.157238,0.58202 -0.408363,0.962211 0.093867,0.061009 0.408363,0.274572 0.408363,0.274572 0,0 0.314477,-0.213562 0.408343,-0.274572 C 3.198766,4.735959 3.041547,4.153939 3.041547,4.153939 z m -0.607849,1.74606 0.429467,0 c 0,0 -0.013846,-0.379788 -0.373143,-0.436515 -0.030495,0.098572 -0.056324,0.218267 -0.056324,0.436515 z M 2.140345,5.374303 c -0.075105,0 -0.570287,-0.072743 -0.67122,-0.535087 l -0.192419,0 0,1.06547 0.788534,0 c 0,0 0,-0.29101 0.075105,-0.530382 z M 1.276706,1.863383 c 0,0 0.323848,0.403658 0.417734,0.877735 0.051638,0.436515 0.154896,1.2861 0.154896,1.2861 0,0 -0.309791,0.13139 -0.38021,0.455258 -0.061009,0 -0.192419,0 -0.192419,0 l 0,-2.61909 z"
   id="path49"
   style="fill:url(#id0)" />
 </g>
</svg>